PathFileType	4	(X/Y/Z)	C:/Users/beibeiliu/ov580/test_trc/User2\sequence.21_training_dense_left.trc
DataRate	CameraRate	NumFrames	NumMarkers	Units	OrigDataRate	OrigDataStartFrame	OrigNumFrames
120	120	19	19	mm	120	36	71
Frame#	Time	ThumbCMC			ThumbMCP			ThumbIP			ThumbTip			IndexMCP			IndexPIP			IndexTip			MiddleMCP			MiddlePIP			MiddleTip			RingMCP			RingPIP			RingTip			PinkyMCP			PinkyPIP			PinkyTip			BackHand1			BackHand2			BackHand3	
		X0	Y0	Z0	X1	Y1	Z1	X2	Y2	Z2	X3	Y3	Z3	X4	Y4	Z4	X5	Y5	Z5	X6	Y6	Z6	X7	Y7	Z7	X8	Y8	Z8	X9	Y9	Z9	X10	Y10	Z10	X11	Y11	Z11	X12	Y12	Z12	X13	Y13	Z13	X14	Y14	Z14	X15	Y15	Z15	X16	Y16	Z16	X17	Y17	Z17	X18	Y18	Z18	
35	0.291667	-293.56	19.3078	-5.30837	-302.975	22.3515	-35.8886	-310.04	25.6277	-65.0579	-316.969	31.2465	-89.05	-255.99	12.659	-84.3914	-239.724	39.2841	-98.9883	-224.54	60.8628	-99.2377	-228.269	10.6317	-79.9726	-216.826	40.6271	-89.6972	-205.02	72.0163	-90.1635	-208.669	5.90887	-70.1774	-200.692	37.8614	-77.156	-205.526	66.5711	-64.1776	-192.82	7.53146	-52.6342	-188.018	32.9866	-61.7069	-182.6	53.3946	-67.3551	-236.495	-28.6142	-22.7334	-246.624	-28.4787	12.9985	-272.14	-14.7971	-11.3807	
36	0.3	-305.19	9.75511	-11.1666	-311.118	12.3688	-40.8699	-320.333	15.3334	-70.1115	-333.596	22.1077	-92.7523	-265.403	-5.2373	-86.6967	-249.586	13.2935	-101.167	-230.299	38.0924	-105.343	-244.85	-10.9976	-83.9292	-229.636	15.4503	-96.6427	-209.825	45.0168	-96.4272	-223.905	-15.0949	-72.3942	-212.905	12.8719	-80.3164	-216.936	49.7011	-67.2171	-209.027	-13.163	-57.0323	-201.964	9.55904	-66.5375	-190.91	31.9854	-75.0451	-251.826	-43.5241	-21.5909	-263.912	-41.3521	9.04742	-287.497	-26.9079	-15.0953	
37	0.308333	-319.878	-1.41329	-17.1357	-328.374	0.280391	-46.2337	-338.834	3.64123	-73.5822	-351.767	9.25332	-95.3756	-281.777	-20.5358	-92.9536	-265.767	-3.01684	-108.321	-248.815	21.3611	-114.484	-262.718	-30.0262	-85.0308	-244.101	-4.56576	-100.916	-225.133	23.7813	-103.574	-241.092	-32.1491	-74.6649	-230.962	-0.586269	-85.4542	-228.841	32.9182	-71.4763	-226.84	-35.3122	-55.8959	-216.479	-11.1231	-68.4592	-210.764	7.25856	-82.4838	-275.951	-54.0003	-22.4461	-280.742	-52.5514	10.04	-309.784	-37.1424	-19.8252	
38	0.316667	-335.923	-10.7805	-16.0353	-349.872	-5.49687	-43.8242	-362.015	-5.52702	-74.2656	-367.189	-1.06252	-95.1565	-303.353	-28.8227	-91.3517	-287.698	-6.60927	-110.633	-267.276	15.8846	-114.765	-284.09	-33.063	-88.655	-263.237	-6.71795	-102.281	-245.032	25.2623	-104.832	-260.948	-34.2204	-79.7424	-249.018	-6.19048	-87.6559	-249.349	26.2121	-77.0477	-245.096	-35.8544	-61.7158	-234.309	-13.6937	-71.6882	-226.682	10.9949	-85.6026	-286.626	-60.1379	-23.4174	-298.77	-55.9022	6.98566	-325.879	-45.416	-18.9827	
39	0.325	-344.562	-20.2241	-13.6478	-356.58	-14.0436	-38.9451	-369.781	-12.094	-74.8571	-378.571	-7.14397	-98.9628	-307.063	-21.0609	-92.6993	-296.825	-0.477286	-104.153	-281.141	30.6922	-104.557	-284.2	-24.1652	-86.8374	-271.813	7.07421	-94.5515	-259.856	35.434	-91.3031	-268.161	-26.5809	-78.166	-257.906	4.45203	-81.9482	-259.222	36.9569	-68.5168	-250.995	-25.9211	-61.7374	-245.809	-0.153324	-68.2906	-244.613	27.3044	-73.4118	-292.837	-62.6025	-27.3471	-299.132	-62.0289	5.46864	-330.539	-50.6973	-18.6719	
40	0.333333	-348.628	-18.9409	-16.8188	-355.96	-11.7079	-43.1373	-363.103	-4.19713	-76.3331	-370.133	5.7182	-97.3725	-298.579	-10.4751	-89.1551	-287.466	15.4931	-94.1072	-271.731	40.5711	-85.4481	-278.046	-14.4516	-80.5101	-265.02	16.008	-81.9049	-257.544	49.0782	-72.2005	-258.965	-18.1284	-70.1969	-251.258	11.6883	-70.7005	-255.065	44.1383	-54.3138	-249.553	-22.8487	-54.3572	-241.416	5.82707	-53.4656	-243.409	33.3854	-54.3692	-285.781	-61.9101	-31.2326	-300.932	-65.3631	2.55681	-326.344	-52.2862	-22.8084	
41	0.341667	-343.044	-2.51739	-17.975	-342.996	10.1572	-41.0079	-344.222	21.8546	-79.5424	-343.259	31.7102	-98.9488	-287.994	-0.669158	-83.1013	-267.838	20.1239	-84.5006	-246.869	39.6837	-69.5712	-265.221	-10.2935	-73.0258	-246.138	16.3302	-69.212	-227.885	41.1554	-52.3759	-249.852	-20.1007	-59.9499	-237.971	7.82932	-56.261	-232.134	36.6301	-40.5665	-240.399	-27.3806	-43.2115	-231.118	-0.40114	-38.5486	-223.852	26.9101	-31.3741	-293.694	-57.1305	-30.0783	-312.755	-58.2276	-0.155754	-330.876	-37.1535	-24.7301	
42	0.35	-328.107	21.3127	-17.6973	-326.532	37.5689	-41.3981	-315.253	44.1666	-74.7876	-309.528	55.913	-93.0809	-278.375	4.65212	-80.0964	-246.608	14.7141	-76.0413	-220.917	25.2612	-57.7569	-260.992	-14.6123	-67.7043	-232.17	-2.03733	-60.8298	-206.054	17.8316	-44.7648	-253.282	-30.4512	-52.6845	-227.363	-14.2785	-43.9704	-210.984	8.99511	-31.7422	-249.291	-42.173	-36.8478	-230.223	-22.3947	-31.0344	-213.572	-3.41885	-25.4052	-311.841	-46.51	-27.473	-329.437	-41.8781	1.71532	-334.454	-14.1961	-23.9527	
43	0.358333	-312.607	39.6601	-11.3976	-303.527	49.1511	-36.1261	-292.813	58.263	-65.9602	-281.64	65.8244	-90.82	-274.177	-1.7207	-76.1412	-245.148	-0.192644	-76.4017	-218.169	-5.04067	-58.5992	-272.373	-22.97	-65.3137	-235.466	-20.6056	-61.4509	-207.312	-21.3211	-45.65	-264.887	-38.2319	-52.1008	-240.656	-36.3692	-45.5594	-211.503	-28.2916	-30.5841	-268.17	-49.1214	-37.8434	-245.132	-44.2797	-29.9678	-223.31	-37.2848	-26.4328	-326.201	-29.2805	-28.3002	-341.11	-22.1028	5.48449	-332.95	10.8248	-19.7592	
44	0.366667	-286.404	40.3272	-3.52551	-272.445	51.0197	-31.8005	-263.109	56.2178	-67.2775	-253.227	55.9088	-85.9912	-277.157	-0.738684	-76.0177	-252.34	-18.4857	-78.7427	-228.109	-35.5594	-57.7814	-284.795	-21.6079	-67.7071	-256.346	-40.6231	-65.789	-224.569	-54.6451	-53.4439	-284.853	-44.6246	-54.3894	-262.284	-53.6228	-50.7331	-231.396	-60.106	-36.9321	-296.064	-52.056	-39.2635	-266.132	-60.2519	-33.5359	-240.33	-61.5796	-32.3273	-332.147	-8.70922	-21.4798	-336.363	6.23259	9.27668	-318.624	29.7016	-17.1597	
45	0.375	-263.518	29.7712	-4.88984	-250.691	33.6299	-33.272	-240.934	35.4992	-62.0375	-230.096	37.4978	-81.9268	-280.043	-2.00751	-79.5428	-263.7	-29.877	-85.1658	-250.289	-54.8118	-67.9028	-295.213	-21.4556	-72.477	-278.354	-52.9926	-74.4254	-258.435	-76.5024	-68.6755	-305.802	-36.1644	-61.7916	-289.036	-58.0689	-60.706	-261.324	-80.0446	-50.9528	-315.732	-48.4791	-44.6502	-296.558	-65.7206	-42.2426	-275.53	-77.4677	-44.3158	-332.067	5.74611	-16.2047	-324.877	20.5098	16.3844	-299.974	34.1231	-9.56306	
46	0.383333	-255.084	20.2135	-9.45639	-240.604	21.7677	-34.0534	-232.979	24.8984	-64.7027	-225.986	24.7017	-89.6588	-286.559	4.03517	-82.8254	-283.578	-23.8459	-95.4963	-279.454	-57.6259	-86.9296	-305.744	-10.345	-78.2886	-299.237	-44.3291	-88.7113	-292.175	-74.2869	-88.5862	-326.481	-25.2471	-64.2729	-312.89	-49.7877	-73.006	-299.308	-78.5456	-71.002	-334.363	-35.0698	-50.4095	-322.288	-52.6023	-54.541	-306.89	-73.9473	-58.9736	-325.742	19.2801	-16.8577	-316.413	23.0453	19.2725	-288.237	33.5776	-8.89077	
47	0.391667	-250.531	14.5198	-8.98033	-242.618	17.2187	-35.1539	-227.131	27.9621	-66.8181	-217.068	28.4482	-85.9774	-290.138	15.4722	-86.038	-290.2	-5.73873	-101.913	-291.466	-38.8596	-109.571	-311.379	8.00374	-78.1953	-313.979	-22.2429	-96.6245	-310.44	-52.6672	-109.357	-331.47	-8.33126	-71.0502	-326.396	-29.5875	-83.3365	-320.562	-59.8901	-92.9973	-342.626	-13.0731	-53.325	-337.078	-37.9266	-65.6882	-327.973	-59.2009	-79.1747	-321.945	25.4791	-10.7932	-310.197	27.4021	18.3605	-282.535	35.6781	-5.92411	
48	0.4	-247.936	14.7609	-4.56488	-237.278	22.9283	-30.9358	-220.286	39.1068	-59.7683	-214.059	44.0776	-81.3727	-286.415	37.5028	-81.8527	-292.404	20.843	-105.416	-296.703	-3.76485	-123.485	-309.479	28.6123	-78.0275	-309.923	6.9186	-105.908	-312.308	-17.871	-127.971	-325.994	17.6694	-71.8143	-331.418	-4.23626	-93.3484	-323.243	-27.0408	-114.927	-343.225	4.77212	-60.2438	-339.579	-13.0567	-80.2998	-337.398	-26.2116	-96.2315	-318.779	33.7473	-7.444	-308.33	26.9331	19.8058	-281.255	37.1702	0.57887	
49	0.408333	-241.122	21.9838	-5.73502	-230.73	32.6011	-25.2851	-214.716	51.3927	-49.9714	-201.651	61.7417	-68.6796	-279.462	57.1483	-78.2333	-282.947	48.2539	-106.022	-287.174	32.934	-128.968	-301.846	50.2513	-78.0471	-306.203	36.6926	-106.936	-312.704	19.0183	-137.069	-322.946	37.3371	-74.2216	-323.774	24.3709	-100.195	-324.307	8.77773	-124.592	-334.106	26.3435	-58.3692	-333.481	13.6155	-85.1167	-336.935	2.03604	-109.941	-312.909	41.8053	-8.51135	-301.777	26.4819	20.4194	-274.733	41.3153	2.03375	
50	0.416667	-236.134	19.0573	-0.0288392	-222.462	35.5596	-22.0008	-206.851	52.9299	-44.4597	-189.889	63.5444	-59.452	-266.565	62.2398	-71.2653	-275.212	57.1024	-103.002	-274.931	45.4415	-128.191	-292.898	55.4702	-76.2493	-296.432	46.8446	-108.153	-300.941	33.9222	-136.465	-312.32	44.2147	-73.1526	-315.988	32.0467	-102.689	-311.602	17.5986	-130.597	-326.782	28.6068	-65.0653	-327.95	19.0361	-88.2364	-322.346	12.0345	-111.929	-306.454	40.3596	-7.41419	-301.32	27.2995	20.4577	-270.391	42.2342	3.55748	
51	0.425	-226.102	16.9246	4.05206	-209.641	29.3852	-18.1755	-197.096	44.4295	-44.2517	-179.905	56.3404	-62.1878	-255.465	47.1791	-75.9137	-255.6	36.9066	-104.295	-256.368	17.8074	-129.592	-276.873	38.6415	-79.1017	-274.087	26.937	-107.206	-276.886	4.72262	-139.633	-294.616	27.2273	-77.3803	-292.903	12.2651	-103.803	-290.065	-7.20218	-124.826	-313.921	12.048	-64.1371	-306.232	-1.60923	-91.7025	-295.725	-14.0732	-110.261	-295.98	32.5049	-11.9987	-294.631	21.3983	20.1166	-260.445	39.7524	2.4939	
52	0.433333	-217.693	20.0977	6.22236	-201.525	26.7818	-15.0991	-185.121	43.3819	-48.5999	-171.458	47.2188	-65.4573	-238.492	19.9504	-76.163	-231.658	1.7973	-98.7124	-224.758	-23.7303	-116.189	-255.214	4.80337	-82.2726	-244.395	-12.6665	-101.089	-233.631	-39.2482	-120.864	-274.882	-8.3635	-73.3679	-262.233	-27.2381	-94.1404	-250.738	-51.6458	-109.596	-287.572	-20.7616	-61.2884	-273.744	-39.3661	-81.6388	-261.537	-57.1253	-98.3135	-282.242	15.7591	-16.2586	-284.161	15.789	21.5715	-251.326	34.8519	-2.5498	
53	0.441667	-213.771	28.5035	8.80735	-200.249	35.829	-20.2378	-185.53	45.1879	-50.6314	-173.131	47.554	-66.9156	-223.506	1.65249	-73.1388	-206.551	-19.8093	-88.7994	-190.967	-41.0999	-95.8871	-231.085	-16.9683	-75.3041	-213.81	-41.0561	-88.1031	-195.892	-66.3098	-95.3753	-244.791	-34.0962	-67.2397	-230.052	-55.4327	-75.5594	-208.688	-72.939	-83.2971	-258.882	-46.2971	-51.9024	-237.978	-64.2215	-63.0156	-220.71	-79.4329	-72.1782	-277.16	-1.88055	-14.264	-278.234	6.74255	16.338	-250.084	29.0763	-7.63956	
